<svg width="18" height="24" viewBox="0 0 18 24" fill="none" xmlns="http://www.w3.org/2000/svg">
<path d="M0.664 11.544C0.664 15.1493 1.304 17.976 2.584 20.024C3.864 22.0507 5.99733 23.064 8.984 23.064C11.9707 23.064 14.104 22.04 15.384 19.992C16.664 17.944 17.304 15.128 17.304 11.544C17.304 7.98133 16.664 5.18667 15.384 3.16C14.104 1.112 11.9707 0.0879993 8.984 0.0879993C5.99733 0.0879993 3.864 1.10133 2.584 3.128C1.304 5.15467 0.664 7.96 0.664 11.544ZM13.656 11.544C13.656 14.1467 13.336 16.1413 12.696 17.528C12.056 18.9147 10.8187 19.608 8.984 19.608C7.128 19.608 5.88 18.9147 5.24 17.528C4.6 16.1413 4.28 14.1467 4.28 11.544C4.28 8.96267 4.6 6.98933 5.24 5.624C5.88 4.25867 7.128 3.576 8.984 3.576C10.8187 3.576 12.056 4.26933 12.696 5.656C13.336 7.02133 13.656 8.984 13.656 11.544Z" fill="#109DFF"/>
</svg>
