<svg width="17" height="24" viewBox="0 0 17 24" fill="none" xmlns="http://www.w3.org/2000/svg">
<path d="M0.78 21.152C4.236 18.784 6.99867 16.4693 9.068 14.208C11.1587 11.9253 12.204 9.81333 12.204 7.872C12.204 6.72 11.916 5.80267 11.34 5.12C10.7853 4.43733 9.87867 4.096 8.62 4.096C7.31867 4.096 6.33733 4.52267 5.676 5.376C5.01467 6.208 4.64133 7.40267 4.556 8.96H1.004C1.15333 6.37867 1.94267 4.40533 3.372 3.04C4.82267 1.67467 6.668 0.991999 8.908 0.991999C11.1053 0.991999 12.8227 1.57867 14.06 2.752C15.3187 3.904 15.948 5.504 15.948 7.552C15.948 9.19467 15.436 10.8587 14.412 12.544C13.4093 14.2293 12.1293 15.7867 10.572 17.216C9.01467 18.624 7.404 19.84 5.74 20.864H16.46V23.84H0.78V21.152Z" fill="#38B9FF"/>
</svg>
