<svg width="17" height="25" viewBox="0 0 17 25" fill="none" xmlns="http://www.w3.org/2000/svg">
<path d="M9.1 0.703999C10.5933 0.703999 11.8733 0.970666 12.94 1.504C14.0067 2.016 14.8067 2.73067 15.34 3.648C15.8947 4.56533 16.172 5.58933 16.172 6.72C16.172 8.14933 15.7667 9.344 14.956 10.304C14.1667 11.2427 13.0467 11.808 11.596 12V12.16C13.1533 12.608 14.3693 13.28 15.244 14.176C16.14 15.0507 16.588 16.2667 16.588 17.824C16.588 19.7227 15.9587 21.2693 14.7 22.464C13.4413 23.6373 11.6387 24.224 9.292 24.224C6.88133 24.224 4.94 23.616 3.468 22.4C1.996 21.1627 1.15333 19.3387 0.94 16.928H4.556C4.684 18.208 5.14267 19.232 5.932 20C6.72133 20.7467 7.788 21.12 9.132 21.12C10.3907 21.12 11.3507 20.7893 12.012 20.128C12.6947 19.4667 13.036 18.6133 13.036 17.568C13.036 16.3093 12.5453 15.3493 11.564 14.688C10.604 14.0267 9.20667 13.696 7.372 13.696H6.508V10.688H7.372C10.8493 10.7307 12.588 9.54667 12.588 7.136C12.588 6.09067 12.268 5.26933 11.628 4.672C10.988 4.07467 10.1133 3.776 9.004 3.776C7.89467 3.776 6.96667 4.11733 6.22 4.8C5.47333 5.46133 5.02533 6.432 4.876 7.712H1.292C1.44133 5.49333 2.188 3.776 3.532 2.56C4.876 1.32267 6.732 0.703999 9.1 0.703999Z" fill="#38B9FF"/>
</svg>
