<svg width="17" height="24" viewBox="0 0 17 24" fill="none" xmlns="http://www.w3.org/2000/svg">
<path d="M15.312 3.288H4.144V10.008C4.656 9.34667 5.38133 8.824 6.32 8.44C7.25867 8.03467 8.29333 7.832 9.424 7.832C11.0027 7.832 12.3147 8.17333 13.36 8.856C14.4053 9.51733 15.1733 10.4027 15.664 11.512C16.176 12.6213 16.432 13.848 16.432 15.192C16.432 17.56 15.7707 19.48 14.448 20.952C13.1253 22.4027 11.2053 23.128 8.688 23.128C6.32 23.128 4.41067 22.4987 2.96 21.24C1.50933 19.9813 0.72 18.3067 0.592 16.216H4.176C4.368 17.368 4.83733 18.2747 5.584 18.936C6.352 19.5973 7.32267 19.928 8.496 19.928C9.94667 19.928 11.0347 19.4907 11.76 18.616C12.4853 17.7413 12.848 16.5787 12.848 15.128C12.848 13.7627 12.4747 12.696 11.728 11.928C10.9813 11.1387 9.91467 10.744 8.528 10.744C7.54667 10.744 6.68267 10.9573 5.936 11.384C5.21067 11.8107 4.67733 12.376 4.336 13.08H0.784V0.0559998H15.312V3.288Z" fill="#38B9FF"/>
</svg>
