<svg width="18" height="25" viewBox="0 0 18 25" fill="none" xmlns="http://www.w3.org/2000/svg">
<path d="M13.048 7.488C12.664 4.97067 11.352 3.712 9.112 3.712C7.49067 3.712 6.27467 4.36267 5.464 5.664C4.65333 6.944 4.248 8.96 4.248 11.712L4.28 12.8C4.6 11.648 5.29333 10.7307 6.36 10.048C7.42667 9.36533 8.68533 9.024 10.136 9.024C12.3547 9.024 14.0933 9.68533 15.352 11.008C16.6107 12.3307 17.24 14.1973 17.24 16.608C17.24 18.0587 16.952 19.36 16.376 20.512C15.8 21.6427 14.936 22.5493 13.784 23.232C12.632 23.8933 11.2133 24.224 9.528 24.224C6.264 24.224 4.024 23.2107 2.808 21.184C1.592 19.1573 0.984 16.3733 0.984 12.832C0.984 8.77867 1.63467 5.74933 2.936 3.744C4.23733 1.73867 6.37067 0.735998 9.336 0.735998C11.5547 0.735998 13.2507 1.36533 14.424 2.624C15.6187 3.88267 16.312 5.504 16.504 7.488H13.048ZM4.6 16.192C4.6 17.5787 5.00533 18.7413 5.816 19.68C6.62667 20.5973 7.82133 21.056 9.4 21.056C10.744 21.056 11.8107 20.6613 12.6 19.872C13.4107 19.0827 13.816 17.984 13.816 16.576C13.816 15.0613 13.4107 13.8987 12.6 13.088C11.7893 12.2773 10.6907 11.872 9.304 11.872C8.04533 11.872 6.94667 12.2453 6.008 12.992C5.06933 13.7387 4.6 14.8053 4.6 16.192Z" fill="#38B9FF"/>
</svg>
