<svg width="18" height="25" viewBox="0 0 18 25" fill="none" xmlns="http://www.w3.org/2000/svg">
<path d="M0.74 6.656C0.74 5.54667 1.03867 4.53333 1.636 3.616C2.23333 2.69867 3.11867 1.96267 4.292 1.408C5.48667 0.853332 6.916 0.575998 8.58 0.575998C10.244 0.575998 11.6627 0.853332 12.836 1.408C14.0307 1.96267 14.9267 2.69867 15.524 3.616C16.1427 4.53333 16.452 5.54667 16.452 6.656C16.452 7.89333 16.1213 8.96 15.46 9.856C14.82 10.752 13.86 11.4027 12.58 11.808C14.0093 12.256 15.108 12.9813 15.876 13.984C16.644 14.9653 17.028 16.1707 17.028 17.6C17.028 19.7973 16.2493 21.5147 14.692 22.752C13.1347 23.968 11.0973 24.576 8.58 24.576C6.06267 24.576 4.02533 23.968 2.468 22.752C0.932 21.5147 0.164 19.7973 0.164 17.6C0.164 16.1707 0.548 14.9653 1.316 13.984C2.084 12.9813 3.18267 12.256 4.612 11.808C3.332 11.4027 2.36133 10.752 1.7 9.856C1.06 8.96 0.74 7.89333 0.74 6.656ZM4.356 7.232C4.356 8.384 4.72933 9.28 5.476 9.92C6.244 10.5387 7.27867 10.848 8.58 10.848C9.88133 10.848 10.916 10.5387 11.684 9.92C12.452 9.28 12.836 8.384 12.836 7.232C12.836 6.08 12.4413 5.184 11.652 4.544C10.884 3.904 9.86 3.584 8.58 3.584C7.3 3.584 6.276 3.904 5.508 4.544C4.74 5.184 4.356 6.08 4.356 7.232ZM3.716 17.408C3.716 18.7093 4.15333 19.7333 5.028 20.48C5.90267 21.2053 7.08667 21.568 8.58 21.568C10.0733 21.568 11.2573 21.2053 12.132 20.48C13.0067 19.7333 13.444 18.7093 13.444 17.408C13.444 16.0853 12.9853 15.0933 12.068 14.432C11.172 13.7493 10.0093 13.408 8.58 13.408C7.172 13.408 6.00933 13.7493 5.092 14.432C4.17467 15.1147 3.716 16.1067 3.716 17.408Z" fill="#38B9FF"/>
</svg>
