<svg width="17" height="25" viewBox="0 0 17 25" fill="none" xmlns="http://www.w3.org/2000/svg">
<path d="M4.664 17.472C4.83467 18.688 5.25067 19.6267 5.912 20.288C6.59467 20.9493 7.512 21.28 8.664 21.28C10.2853 21.28 11.4907 20.64 12.28 19.36C13.0907 18.0587 13.496 16.0213 13.496 13.248L13.464 12.16C13.1227 13.312 12.408 14.24 11.32 14.944C10.2533 15.6267 9.00533 15.968 7.576 15.968C5.35733 15.968 3.61867 15.3067 2.36 13.984C1.10133 12.64 0.472 10.7733 0.472 8.384C0.472 6.93333 0.76 5.632 1.336 4.48C1.912 3.328 2.776 2.42133 3.928 1.76C5.08 1.07733 6.49867 0.735998 8.184 0.735998C11.448 0.735998 13.688 1.73867 14.904 3.744C16.1413 5.728 16.76 8.48 16.76 12C16.76 15.9893 16.1307 19.0293 14.872 21.12C13.6347 23.2107 11.5653 24.256 8.664 24.256C6.424 24.256 4.664 23.6267 3.384 22.368C2.12533 21.088 1.4 19.456 1.208 17.472H4.664ZM13.112 8.768C13.112 7.38133 12.7067 6.22933 11.896 5.312C11.1067 4.37333 9.912 3.904 8.312 3.904C6.98933 3.904 5.92267 4.29867 5.112 5.088C4.32267 5.87733 3.928 6.98667 3.928 8.416C3.928 9.93067 4.32267 11.0933 5.112 11.904C5.92267 12.7147 7.02133 13.12 8.408 13.12C9.21867 13.12 9.976 12.96 10.68 12.64C11.4053 12.2987 11.992 11.808 12.44 11.168C12.888 10.5067 13.112 9.70667 13.112 8.768Z" fill="#38B9FF"/>
</svg>
