<svg width="22" height="14" viewBox="0 0 22 14" fill="none" xmlns="http://www.w3.org/2000/svg">
<path d="M6.33315 8.33059e-09H20.7981C21.0634 8.33059e-09 21.3177 0.0783688 21.5053 0.217866C21.6928 0.357364 21.7981 0.546563 21.7981 0.743842V12.6453C21.7981 12.8426 21.6928 13.0318 21.5053 13.1713C21.3177 13.3108 21.0634 13.3892 20.7981 13.3892H6.33315C6.16856 13.3892 6.0065 13.359 5.86137 13.3012C5.71623 13.2435 5.5925 13.16 5.50115 13.0582L0.16815 7.10741C0.0585107 6.98518 0 6.84153 0 6.69458C0 6.54764 0.0585107 6.40398 0.16815 6.28175L5.50115 0.33101C5.5925 0.229166 5.71623 0.145668 5.86137 0.087926C6.0065 0.0301836 6.16856 -1.83129e-05 6.33315 8.33059e-09ZM6.86815 1.48768L2.20215 6.69458L6.86815 11.9015H19.7981V1.48768H6.86815ZM12.7982 5.64279L15.6262 3.53846L17.0411 4.591L14.2121 6.69458L17.0411 8.79817L15.6262 9.8507L12.7982 7.74637L9.97015 9.8507L8.55515 8.79817L11.3842 6.69458L8.55515 4.591L9.97015 3.53846L12.7982 5.64279Z" fill="#858585"/>
</svg>
